<svg width="736" height="576" viewBox="0 0 736 576" fill="none" xmlns="http://www.w3.org/2000/svg">
<g filter="url(#filter0_f_1_577)">
<path d="M572.173 328.31C574.537 327.875 575.739 326.632 575.78 324.58C576.22 301.575 576 280.882 575.118 262.503C574.848 257.234 571.151 252.93 570.91 247.922C570.249 233.229 569.738 218.11 569.377 202.564C569.318 200.37 568.285 198.277 566.492 196.722L535.893 170.196C533.105 167.776 529.393 166.329 525.462 166.127C516.325 165.657 507.177 165.162 498.019 164.64C493.15 164.379 490.445 161.901 485.786 161.484C476.648 160.649 467.33 160.05 458.192 160.023C425.249 159.971 390.281 160.006 353.29 160.128C349.402 160.145 346.076 161.336 343.311 163.701C330.025 175.073 316.489 186.88 302.702 199.122C301.826 199.89 300.785 200.5 299.639 200.917C298.494 201.333 297.267 201.547 296.029 201.547L243.157 201.704C241.494 201.704 240.472 202.408 240.091 203.816L239.58 205.799C239.32 206.79 238.598 207.285 237.416 207.285L198.431 207.312C198.176 207.312 197.923 207.355 197.688 207.439C197.452 207.523 197.239 207.647 197.06 207.802C196.881 207.958 196.74 208.142 196.645 208.344C196.55 208.546 196.503 208.763 196.507 208.981C196.627 216.962 199.333 229.456 192.239 235.324C183.422 242.645 174.264 250.609 164.766 259.216C161.7 261.999 160.127 265.233 160.047 268.919C159.826 280.413 160.387 291.498 161.73 302.175C162.03 304.679 164.435 307.965 166.96 310.104C172.09 314.416 174.705 319.45 174.805 325.206C174.985 334.352 174.835 343.003 174.354 351.158C174.338 351.441 174.388 351.723 174.502 351.989C174.615 352.254 174.79 352.497 175.015 352.702C175.24 352.906 175.51 353.07 175.81 353.181C176.11 353.292 176.433 353.349 176.759 353.349C211.867 353.401 246.804 353.427 281.571 353.427C285.158 353.427 288.334 354.619 291.1 357.001C314.004 376.719 336.037 395.847 357.197 414.383C358.392 415.417 360.013 415.999 361.706 416L521.825 415.765C523.068 415.765 523.719 415.226 523.779 414.148C524.08 407.94 521.825 400.533 527.596 395.629C540.121 384.97 552.595 374.433 565.019 364.017C568.285 361.252 569.868 357.879 569.768 353.897C569.527 345.933 569.678 338.056 570.219 330.266C570.279 329.188 570.93 328.536 572.173 328.31Z" fill="#F33F41" fill-opacity="0.2"/>
</g>
<defs>
<filter id="filter0_f_1_577" x="0.600006" y="0.600006" width="734.8" height="574.8" filterUnits="userSpaceOnUse" color-interpolation-filters="sRGB">
<feFlood flood-opacity="0" result="BackgroundImageFix"/>
<feBlend mode="normal" in="SourceGraphic" in2="BackgroundImageFix" result="shape"/>
<feGaussianBlur stdDeviation="79.7" result="effect1_foregroundBlur_1_577"/>
</filter>
</defs>
</svg>
